M48
; DRILL file KiCad 10.0.2 date 2026-05-18T02:54:39
; FORMAT={-:-/ absolute / metric / decimal}
; #@! TF.CreationDate,2026-05-18T02:54:39+07:00
; #@! TF.GenerationSoftware,Kicad,Pcbnew,10.0.2
; #@! TF.FileFunction,Plated,1,2,PTH
FMAT,2
METRIC
; #@! TA.AperFunction,Plated,PTH,ComponentDrill
T1C0.800
; #@! TA.AperFunction,Plated,PTH,ComponentDrill
T2C1.000
; #@! TA.AperFunction,Plated,PTH,ComponentDrill
T3C1.020
; #@! TA.AperFunction,Plated,PTH,ComponentDrill
T4C1.100
; #@! TA.AperFunction,Plated,PTH,ComponentDrill
T5C1.300
; #@! TA.AperFunction,Plated,PTH,ComponentDrill
T6C2.500
%
G90
G05
T1
X54.3Y-33.64
X54.3Y-43.8
X54.3Y-49.7
X54.3Y-59.86
X54.4Y-120.66
X55.1Y-99.75
X55.1Y-109.91
X59.4Y-120.66
X60.8Y-49.2
X60.8Y-59.36
X61.3Y-33.72
X61.3Y-43.88
X68.22Y-49.4
X73.102Y-120.66
X73.802Y-99.75
X73.802Y-109.91
X78.102Y-120.66
X78.38Y-49.4
X91.804Y-120.66
X92.504Y-99.75
X92.504Y-109.91
X96.804Y-120.66
X110.506Y-120.66
X111.206Y-99.75
X111.206Y-109.91
X115.506Y-120.66
X124.0Y-94.1
X124.3Y-74.6
X124.5Y-58.2
X129.208Y-120.66
X129.908Y-99.75
X129.908Y-109.91
X134.16Y-94.1
X134.208Y-120.66
X134.46Y-74.6
X134.66Y-58.2
X145.8Y-89.37
X145.8Y-94.37
X147.2Y-54.2
X147.2Y-59.2
X147.2Y-71.1
X147.2Y-76.1
X147.91Y-120.66
X148.61Y-99.75
X148.61Y-109.91
X152.91Y-120.66
T2
X58.02Y-82.33
X58.02Y-84.87
X58.02Y-87.41
X58.02Y-89.95
X58.1Y-66.0
X58.1Y-68.54
X58.1Y-71.08
X58.1Y-73.62
X67.733Y-59.541
X67.733Y-62.081
X67.733Y-64.621
X67.733Y-67.162
X67.733Y-69.701
X67.733Y-72.242
X67.733Y-74.781
X67.733Y-77.322
X67.733Y-79.861
X67.733Y-82.401
X85.12Y-91.6
X87.66Y-91.6
X90.2Y-91.6
X92.74Y-91.6
X103.46Y-91.3
X106.0Y-91.3
X108.54Y-91.3
X111.08Y-91.3
X113.62Y-91.3
T3
X90.0Y-40.685
X90.0Y-43.225
X90.0Y-45.765
X90.0Y-48.305
X90.0Y-50.845
X90.0Y-53.385
X90.0Y-55.925
X90.0Y-58.465
X90.0Y-61.005
X90.0Y-63.545
X90.0Y-66.085
X90.0Y-68.625
X90.0Y-71.165
X90.0Y-73.705
X90.0Y-76.245
X115.4Y-40.685
X115.4Y-43.225
X115.4Y-45.765
X115.4Y-48.305
X115.4Y-50.845
X115.4Y-53.385
X115.4Y-55.925
X115.4Y-58.465
X115.4Y-61.005
X115.4Y-63.545
X115.4Y-66.085
X115.4Y-68.625
X115.4Y-71.165
X115.4Y-73.705
X115.4Y-76.245
T4
X54.7Y-114.16
X62.81Y-102.37
X62.81Y-104.91
X62.81Y-107.45
X64.86Y-114.16
X73.402Y-114.16
X81.512Y-102.37
X81.512Y-104.91
X81.512Y-107.45
X83.562Y-114.16
X92.104Y-114.16
X100.214Y-102.37
X100.214Y-104.91
X100.214Y-107.45
X102.264Y-114.16
X110.806Y-114.16
X118.916Y-102.37
X118.916Y-104.91
X118.916Y-107.45
X120.966Y-114.16
X126.4Y-87.2
X126.6Y-50.9
X127.3Y-67.5
X128.94Y-87.2
X129.14Y-50.9
X129.508Y-114.16
X129.84Y-67.5
X131.48Y-87.2
X131.68Y-50.9
X132.38Y-67.5
X137.618Y-102.37
X137.618Y-104.91
X137.618Y-107.45
X139.668Y-114.16
X140.3Y-84.24
X140.3Y-94.4
X140.5Y-48.64
X140.5Y-58.8
X141.1Y-65.64
X141.1Y-75.8
X148.21Y-114.16
X156.32Y-102.37
X156.32Y-104.91
X156.32Y-107.45
X158.37Y-114.16
T5
X43.5Y-34.6
X43.5Y-39.68
X43.5Y-44.76
X43.5Y-49.84
X43.5Y-59.6
X43.5Y-64.68
X43.5Y-69.76
X43.5Y-79.32
X43.5Y-84.4
X43.5Y-89.48
X43.5Y-94.56
X43.5Y-103.115
X43.5Y-108.195
X43.5Y-113.275
X43.5Y-123.04
X43.5Y-128.12
X43.5Y-133.2
X56.39Y-130.332
X61.47Y-130.332
X68.54Y-35.84
X73.62Y-35.84
X75.092Y-130.332
X78.7Y-35.84
X80.172Y-130.332
X93.794Y-130.332
X98.874Y-130.332
X112.496Y-130.332
X117.576Y-130.332
X125.1Y-35.84
X130.18Y-35.84
X131.198Y-130.332
X136.278Y-130.332
X139.435Y-35.84
X144.515Y-35.84
X149.9Y-130.332
X154.355Y-35.84
X154.98Y-130.332
X156.3Y-52.13
X156.3Y-57.21
X156.3Y-69.968
X156.3Y-75.047
X156.3Y-87.3
X156.3Y-92.38
X159.435Y-35.84
T6
X80.432Y-59.541
X80.432Y-82.401
M30
